# xmcd CD database file
#
# Track frame offsets:
#	150
#	17356
#	34565
#	52419
#	66983
#	80309
#	98898
#	112104
#	130030
#	150036
#	170374
#	191034
#	211776
#	227785
#	247254
#	267230
#	282080
#	302357
#	321579
#	336821
#
# Disc length: 4730 seconds
#
# Revision: 0
# Processed by: cddbd v1.5.2PL0 Copyright (c) Steve Scherf et al.
# Submitted via: CDex 1.51
#
DISCID=13127814
DTITLE=The Real Book Play-Along - Volume I S-Z CD1
DYEAR=1900
DGENRE=Jazz
TTITLE0=Satin Doll
TTITLE1=Scrapple from the Apple
TTITLE2=Seven Come Eleven
TTITLE3=Sidewinder
TTITLE4=So Nice (Summer Samba)
TTITLE5=So What
TTITLE6=Solar
TTITLE7=Solitude
TTITLE8=Some Day My Prince Will Come
TTITLE9=Some Other Spring
TTITLE10=Some Skunk Funk
TTITLE11=Somebody Loves Me
TTITLE12=Song for My Father
TTITLE13=The Song Is You
TTITLE14=Sophisticated Lady
TTITLE15=The Sorcerer
TTITLE16=Speak No Evil
TTITLE17=Stella by Starlight
TTITLE18=Stolen Moments
TTITLE19=Stompin' at the Savoy
EXTD=
EXTT0=
EXTT1=
EXTT2=
EXTT3=
EXTT4=
EXTT5=
EXTT6=
EXTT7=
EXTT8=
EXTT9=
EXTT10=
EXTT11=
EXTT12=
EXTT13=
EXTT14=
EXTT15=
EXTT16=
EXTT17=
EXTT18=
EXTT19=
PLAYORDER=
